<?xml version="1.0" encoding="utf-8"?>
<svg xmlns="http://www.w3.org/2000/svg" xmlns:xlink="http://www.w3.org/1999/xlink" style="margin: auto; background: none; display: block; shape-rendering: auto;" width="100px" height="100px" viewBox="0 0 100 100" preserveAspectRatio="xMidYMid">
<g transform="rotate(0 50 50)">
  <rect x="44.5" y="23.5" rx="1.6500000000000001" ry="1.6500000000000001" width="11" height="15" fill="#d7689d">
    <animate attributeName="opacity" values="1;0" keyTimes="0;1" dur="0.6711409395973155s" begin="-0.6101281269066504s" repeatCount="indefinite"></animate>
  </rect>
</g><g transform="rotate(32.72727272727273 50 50)">
  <rect x="44.5" y="23.5" rx="1.6500000000000001" ry="1.6500000000000001" width="11" height="15" fill="#f3d337">
    <animate attributeName="opacity" values="1;0" keyTimes="0;1" dur="0.6711409395973155s" begin="-0.5491153142159854s" repeatCount="indefinite"></animate>
  </rect>
</g><g transform="rotate(65.45454545454545 50 50)">
  <rect x="44.5" y="23.5" rx="1.6500000000000001" ry="1.6500000000000001" width="11" height="15" fill="#a0c443">
    <animate attributeName="opacity" values="1;0" keyTimes="0;1" dur="0.6711409395973155s" begin="-0.4881025015253203s" repeatCount="indefinite"></animate>
  </rect>
</g><g transform="rotate(98.18181818181819 50 50)">
  <rect x="44.5" y="23.5" rx="1.6500000000000001" ry="1.6500000000000001" width="11" height="15" fill="#66b5ae">
    <animate attributeName="opacity" values="1;0" keyTimes="0;1" dur="0.6711409395973155s" begin="-0.42708968883465526s" repeatCount="indefinite"></animate>
  </rect>
</g><g transform="rotate(130.9090909090909 50 50)">
  <rect x="44.5" y="23.5" rx="1.6500000000000001" ry="1.6500000000000001" width="11" height="15" fill="#5da4dc">
    <animate attributeName="opacity" values="1;0" keyTimes="0;1" dur="0.6711409395973155s" begin="-0.3660768761439902s" repeatCount="indefinite"></animate>
  </rect>
</g><g transform="rotate(163.63636363636363 50 50)">
  <rect x="44.5" y="23.5" rx="1.6500000000000001" ry="1.6500000000000001" width="11" height="15" fill="#40769e">
    <animate attributeName="opacity" values="1;0" keyTimes="0;1" dur="0.6711409395973155s" begin="-0.3050640634533252s" repeatCount="indefinite"></animate>
  </rect>
</g><g transform="rotate(196.36363636363637 50 50)">
  <rect x="44.5" y="23.5" rx="1.6500000000000001" ry="1.6500000000000001" width="11" height="15" fill="#d7689d">
    <animate attributeName="opacity" values="1;0" keyTimes="0;1" dur="0.6711409395973155s" begin="-0.24405125076266015s" repeatCount="indefinite"></animate>
  </rect>
</g><g transform="rotate(229.0909090909091 50 50)">
  <rect x="44.5" y="23.5" rx="1.6500000000000001" ry="1.6500000000000001" width="11" height="15" fill="#f3d337">
    <animate attributeName="opacity" values="1;0" keyTimes="0;1" dur="0.6711409395973155s" begin="-0.1830384380719951s" repeatCount="indefinite"></animate>
  </rect>
</g><g transform="rotate(261.8181818181818 50 50)">
  <rect x="44.5" y="23.5" rx="1.6500000000000001" ry="1.6500000000000001" width="11" height="15" fill="#a0c443">
    <animate attributeName="opacity" values="1;0" keyTimes="0;1" dur="0.6711409395973155s" begin="-0.12202562538133008s" repeatCount="indefinite"></animate>
  </rect>
</g><g transform="rotate(294.54545454545456 50 50)">
  <rect x="44.5" y="23.5" rx="1.6500000000000001" ry="1.6500000000000001" width="11" height="15" fill="#66b5ae">
    <animate attributeName="opacity" values="1;0" keyTimes="0;1" dur="0.6711409395973155s" begin="-0.06101281269066504s" repeatCount="indefinite"></animate>
  </rect>
</g><g transform="rotate(327.27272727272725 50 50)">
  <rect x="44.5" y="23.5" rx="1.6500000000000001" ry="1.6500000000000001" width="11" height="15" fill="#5da4dc">
    <animate attributeName="opacity" values="1;0" keyTimes="0;1" dur="0.6711409395973155s" begin="0s" repeatCount="indefinite"></animate>
  </rect>
</g>
<!-- [ldio] generated by https://loading.io/ --></svg>